<svg xmlns="http://www.w3.org/2000/svg" viewBox="0 0 600 600" preserveAspectRatio="xMidYMid slice">
  <defs>
    <linearGradient id="hands-bg" x1="0" y1="0" x2="0" y2="1">
      <stop offset="0%" stop-color="#FBE9E9"></stop>
      <stop offset="100%" stop-color="#F4E7D2"></stop>
    </linearGradient>
    <linearGradient id="oldhand" x1="0" y1="0" x2="0" y2="1">
      <stop offset="0%" stop-color="#E6C9A4"></stop>
      <stop offset="100%" stop-color="#C9986A"></stop>
    </linearGradient>
    <linearGradient id="youngerhand" x1="0" y1="0" x2="0" y2="1">
      <stop offset="0%" stop-color="#FAE2C8"></stop>
      <stop offset="100%" stop-color="#E6C9A4"></stop>
    </linearGradient>
    <linearGradient id="tinyhand" x1="0" y1="0" x2="0" y2="1">
      <stop offset="0%" stop-color="#FBE7CD"></stop>
      <stop offset="100%" stop-color="#F0D2A8"></stop>
    </linearGradient>
  </defs>
  <rect width="600" height="600" fill="url(#hands-bg)"></rect>
  
  <radialGradient id="halo" cx="0.5" cy="0.55" r="0.5">
    <stop offset="0%" stop-color="#FFFDF6"></stop>
    <stop offset="100%" stop-color="#FFFDF6" stop-opacity="0"></stop>
  </radialGradient>
  <ellipse cx="300" cy="340" rx="280" ry="240" fill="url(#halo)"></ellipse>

  

  
  <g transform="translate(300, 380)">
    <path d="M -180 50&#xA;             Q -200 -20 -160 -60&#xA;             Q -100 -90 -20 -80&#xA;             Q 60 -70 130 -50&#xA;             Q 200 -30 200 30&#xA;             Q 200 80 100 90&#xA;             Q 0 100 -80 90&#xA;             Q -160 80 -180 50 Z" fill="url(#oldhand)"></path>
    
    <g fill="#A8835A" opacity="0.4">
      <ellipse cx="-100" cy="-30" rx="14" ry="6"></ellipse>
      <ellipse cx="-40" cy="-50" rx="14" ry="6"></ellipse>
      <ellipse cx="20" cy="-58" rx="14" ry="6"></ellipse>
      <ellipse cx="80" cy="-50" rx="14" ry="6"></ellipse>
    </g>
    
    <g stroke="#A8835A" stroke-width="1.2" fill="none" opacity="0.5" stroke-linecap="round">
      <path d="M -150 20 Q -100 16 -50 22"></path>
      <path d="M -120 50 Q -60 46 0 52"></path>
      <path d="M 40 50 Q 100 46 160 52"></path>
    </g>
    
    <ellipse cx="-40" cy="-46" rx="8" ry="4" fill="#E89B3A" stroke="#A86420" stroke-width="1"></ellipse>
  </g>

  
  <g transform="translate(300, 290) rotate(-8)">
    <path d="M -120 30&#xA;             Q -135 -16 -100 -42&#xA;             Q -60 -56 0 -52&#xA;             Q 60 -46 110 -32&#xA;             Q 140 -18 140 16&#xA;             Q 140 50 60 60&#xA;             Q 0 66 -50 60&#xA;             Q -100 54 -120 30 Z" fill="url(#youngerhand)"></path>
    <g fill="#D9B88C" opacity="0.4">
      <ellipse cx="-60" cy="-24" rx="10" ry="4"></ellipse>
      <ellipse cx="-20" cy="-36" rx="10" ry="4"></ellipse>
      <ellipse cx="20" cy="-40" rx="10" ry="4"></ellipse>
      <ellipse cx="60" cy="-32" rx="10" ry="4"></ellipse>
    </g>
  </g>

  
  <g transform="translate(300, 220) rotate(6)">
    <path d="M -70 16&#xA;             Q -82 -12 -56 -28&#xA;             Q -28 -36 0 -34&#xA;             Q 30 -32 60 -22&#xA;             Q 82 -12 82 8&#xA;             Q 82 30 36 36&#xA;             Q 0 40 -30 36&#xA;             Q -60 32 -70 16 Z" fill="url(#tinyhand)"></path>
    <g fill="#E6C9A4" opacity="0.4">
      <ellipse cx="-32" cy="-14" rx="6" ry="2.5"></ellipse>
      <ellipse cx="-10" cy="-22" rx="6" ry="2.5"></ellipse>
      <ellipse cx="12" cy="-22" rx="6" ry="2.5"></ellipse>
      <ellipse cx="32" cy="-14" rx="6" ry="2.5"></ellipse>
    </g>
    
    <path d="M -64 18 Q -50 26 -36 22" stroke="#D94B4B" stroke-width="3" fill="none" stroke-linecap="round"></path>
    <circle cx="-50" cy="22" r="3" fill="#E89B3A"></circle>
  </g>

  
  <g fill="#F4D4D4" opacity="0.7">
    <circle cx="60" cy="120" r="6"></circle>
    <circle cx="100" cy="160" r="4"></circle>
    <circle cx="520" cy="100" r="5"></circle>
    <circle cx="490" cy="160" r="3.5"></circle>
    <circle cx="40" cy="280" r="3"></circle>
  </g>
  <g fill="#D94B4B" opacity="0.55">
    <path d="M 80 60 a 6 6 0 0 1 12 0 a 6 6 0 0 1 12 0 c 0 7 -12 13 -12 13 c 0 0 -12 -6 -12 -13 z"></path>
    <path d="M 470 50 a 5 5 0 0 1 10 0 a 5 5 0 0 1 10 0 c 0 6 -10 11 -10 11 c 0 0 -10 -5 -10 -11 z"></path>
  </g>

  
  <g stroke="#C9986A" stroke-width="1" fill="none" opacity="0.3" stroke-linecap="round" stroke-dasharray="2 4">
    <path d="M 180 480 Q 300 510 420 480"></path>
    <path d="M 200 510 Q 300 530 400 510"></path>
  </g>
</svg>