<svg xmlns="http://www.w3.org/2000/svg" viewBox="0 0 220 160" preserveAspectRatio="xMidYMid meet" width="100%" height="100%">

  <defs>
    <linearGradient id="cardbg" x1="0" y1="0" x2="0" y2="1">
      <stop offset="0%" stop-color="#FBF8EF"></stop>
      <stop offset="100%" stop-color="#F5F1E6"></stop>
    </linearGradient>
    <clipPath id="cardclip"><rect x="0" y="0" width="220" height="160" rx="14"></rect></clipPath>
  </defs>
  <rect x="0" y="0" width="220" height="160" rx="14" fill="url(#cardbg)"></rect>
  <g clip-path="url(#cardclip)">
            <defs>
              <linearGradient id="vp1" x1="0" y1="0" x2="0" y2="1"><stop offset="0%" stop-color="#FFFFFF"></stop><stop offset="100%" stop-color="#E6E8EC"></stop></linearGradient>
              <clipPath id="vp1-screen"><rect x="82" y="30" width="56" height="100" rx="8"></rect></clipPath>
            </defs>
            <ellipse cx="110" cy="148" rx="56" ry="4" fill="#1F2A3A" opacity="0.18"></ellipse>
            
            <rect x="80" y="16" width="60" height="128" rx="14" fill="url(#vp1)" stroke="#C8CCD2" stroke-width="0.6"></rect>
            
            <rect x="82" y="18" width="56" height="124" rx="12" fill="#FFFFFF"></rect>
            
            <rect x="82" y="20" width="56" height="120" rx="10" fill="#F5F1E6"></rect>
            
            <rect x="104" y="22" width="12" height="3.5" rx="1.75" fill="#0E141C"></rect>
            
            <circle cx="113.5" cy="23.75" r="0.7" fill="#1F2A3A"></circle>
            <circle cx="113.5" cy="23.75" r="0.35" fill="#4FB89E" opacity="0.7"></circle>
            
            <rect x="79" y="38" width="1" height="10" rx="0.5" fill="#B5BCC8"></rect>
            <rect x="79" y="54" width="1" height="14" rx="0.5" fill="#B5BCC8"></rect>
            <rect x="79" y="72" width="1" height="14" rx="0.5" fill="#B5BCC8"></rect>
            <rect x="140" y="48" width="1" height="20" rx="0.5" fill="#B5BCC8"></rect>

            
            <g clip-path="url(#vp1-screen)">
              <g>
                

                
                <g transform="translate(82,30)">
                  <g>
                    
                    <text x="6" y="14" font-family="&#39;Pretendard Variable&#39;, Pretendard, -apple-system, sans-serif" font-size="5" font-weight="700" fill="#7B8699">케어 홈</text>
                    <rect x="4" y="20" width="52" height="22" rx="6" fill="#4FB89E"></rect>
                    <text x="30" y="30" text-anchor="middle" font-family="&#39;Pretendard Variable&#39;, Pretendard, -apple-system, sans-serif" font-size="5" font-weight="600" fill="#fff" opacity="0.85">컨디션</text>
                    <text x="30" y="40" text-anchor="middle" font-family="&#39;Pretendard Variable&#39;, Pretendard, -apple-system, sans-serif" font-size="10" font-weight="800" fill="#fff">87</text>
                    <rect x="4" y="46" width="24" height="14" rx="3" fill="#FBF8EF" stroke="#E6E0D1" stroke-width="0.6"></rect>
                    <text x="16" y="55" text-anchor="middle" font-family="&#39;Pretendard Variable&#39;, Pretendard, -apple-system, sans-serif" font-size="4" font-weight="700" fill="#246356">걸음</text>
                    <rect x="32" y="46" width="24" height="14" rx="3" fill="#FBF8EF" stroke="#E6E0D1" stroke-width="0.6"></rect>
                    <text x="44" y="55" text-anchor="middle" font-family="&#39;Pretendard Variable&#39;, Pretendard, -apple-system, sans-serif" font-size="4" font-weight="700" fill="#246356">복약</text>
                    <rect x="4" y="64" width="52" height="20" rx="4" fill="#F4E7D2"></rect>
                    <text x="8" y="73" font-family="&#39;Pretendard Variable&#39;, Pretendard, -apple-system, sans-serif" font-size="4.5" font-weight="700" fill="#8C6433">바로 가기</text>
                    <circle cx="10" cy="79" r="1.6" fill="#8C6433"></circle>
                    <circle cx="16" cy="79" r="1.6" fill="#8C6433" opacity="0.7"></circle>
                    <circle cx="22" cy="79" r="1.6" fill="#8C6433" opacity="0.5"></circle>
                    
                    <text x="6" y="92" font-family="&#39;Pretendard Variable&#39;, Pretendard, -apple-system, sans-serif" font-size="4.5" font-weight="700" fill="#7B8699">오늘의 알림</text>
                    <rect x="4" y="96" width="52" height="10" rx="2" fill="#DDF0E7"></rect>
                    <circle cx="9" cy="101" r="1.2" fill="#4FB89E"></circle>
                    <text x="14" y="103" font-family="&#39;Pretendard Variable&#39;, Pretendard, -apple-system, sans-serif" font-size="3.5" fill="#246356">약 복용 완료</text>
                    <rect x="4" y="108" width="52" height="10" rx="2" fill="#FBF8EF" stroke="#E6E0D1" stroke-width="0.5"></rect>
                    <circle cx="9" cy="113" r="1.2" fill="#C9A06E"></circle>
                    <text x="14" y="115" font-family="&#39;Pretendard Variable&#39;, Pretendard, -apple-system, sans-serif" font-size="3.5" fill="#8C6433">손녀 사진 1장 추가</text>
                  </g>
                </g>

                
                <g transform="translate(138,30)">
                  <text x="6" y="14" font-family="&#39;Pretendard Variable&#39;, Pretendard, -apple-system, sans-serif" font-size="5" font-weight="700" fill="#7B8699">7신호</text>
                  
                  <rect x="4" y="20" width="52" height="30" rx="4" fill="#FBF8EF" stroke="#E6E0D1" stroke-width="0.6"></rect>
                  <polyline points="6,42 14,38 22,40 30,32 38,34 46,28 54,30" stroke="#4FB89E" stroke-width="1.4" fill="none" stroke-linecap="round"></polyline>
                  
                  <circle cx="10" cy="60" r="3" fill="#4FB89E"></circle>
                  <text x="10" y="62" text-anchor="middle" font-family="&#39;Pretendard Variable&#39;, Pretendard, -apple-system, sans-serif" font-size="3" font-weight="700" fill="#fff">걸</text>
                  <circle cx="22" cy="60" r="3" fill="#4FB89E"></circle>
                  <text x="22" y="62" text-anchor="middle" font-family="&#39;Pretendard Variable&#39;, Pretendard, -apple-system, sans-serif" font-size="3" font-weight="700" fill="#fff">수</text>
                  <circle cx="34" cy="60" r="3" fill="#4FB89E"></circle>
                  <text x="34" y="62" text-anchor="middle" font-family="&#39;Pretendard Variable&#39;, Pretendard, -apple-system, sans-serif" font-size="3" font-weight="700" fill="#fff">약</text>
                  <circle cx="46" cy="60" r="3" fill="#C9A06E"></circle>
                  <text x="46" y="62" text-anchor="middle" font-family="&#39;Pretendard Variable&#39;, Pretendard, -apple-system, sans-serif" font-size="3" font-weight="700" fill="#fff">심</text>
                  
                  <rect x="4" y="68" width="52" height="6" rx="2" fill="#FBF8EF" stroke="#E6E0D1" stroke-width="0.5"></rect>
                  <rect x="4" y="76" width="52" height="6" rx="2" fill="#FBF8EF" stroke="#E6E0D1" stroke-width="0.5"></rect>
                </g>

                
                <g transform="translate(194,30)">
                  <text x="6" y="14" font-family="&#39;Pretendard Variable&#39;, Pretendard, -apple-system, sans-serif" font-size="5" font-weight="700" fill="#7B8699">기억 모듈</text>
                  <rect x="4" y="20" width="25" height="28" rx="3" fill="#DDF0E7"></rect>
                  <circle cx="16" cy="30" r="4" fill="#F4E7D2"></circle>
                  <path d="M 6 42 L 16 36 L 27 42 L 27 46 L 6 46 Z" fill="#7CC5A9"></path>
                  <text x="16" y="55" text-anchor="middle" font-family="&#39;Pretendard Variable&#39;, Pretendard, -apple-system, sans-serif" font-size="3.5" font-weight="700" fill="#246356">일상</text>
                  <rect x="31" y="20" width="25" height="28" rx="3" fill="#F4E7D2"></rect>
                  <circle cx="44" cy="34" r="5" fill="#C9A06E"></circle>
                  <circle cx="44" cy="34" r="2.5" fill="none" stroke="#fff" stroke-width="0.8"></circle>
                  <text x="44" y="55" text-anchor="middle" font-family="&#39;Pretendard Variable&#39;, Pretendard, -apple-system, sans-serif" font-size="3.5" font-weight="700" fill="#8C6433">물품</text>
                  <rect x="4" y="58" width="25" height="22" rx="3" fill="#FBE9E9"></rect>
                  <text x="16" y="80" text-anchor="middle" font-family="&#39;Pretendard Variable&#39;, Pretendard, -apple-system, sans-serif" font-size="3.5" font-weight="700" fill="#8C2929">관계</text>
                  <rect x="31" y="58" width="25" height="22" rx="3" fill="#E6F0EC"></rect>
                  <text x="44" y="80" text-anchor="middle" font-family="&#39;Pretendard Variable&#39;, Pretendard, -apple-system, sans-serif" font-size="3.5" font-weight="700" fill="#246356">작품</text>
                </g>
              </g>
            </g>

            
            <g transform="translate(82,128)">
              <circle cx="14" cy="0" r="2" fill="#4FB89E">
                
                
              </circle>
              <circle cx="30" cy="0" r="1.6" fill="#B5BCC8">
                
                
              </circle>
              <circle cx="46" cy="0" r="1.6" fill="#B5BCC8">
                
                
              </circle>
            </g>
          </g>
</svg>