<svg xmlns="http://www.w3.org/2000/svg" viewBox="0 0 220 160" preserveAspectRatio="xMidYMid meet" width="100%" height="100%">

  <defs>
    <linearGradient id="cardbg" x1="0" y1="0" x2="0" y2="1">
      <stop offset="0%" stop-color="#FBF8EF"></stop>
      <stop offset="100%" stop-color="#E6E8EC"></stop>
    </linearGradient>
    <clipPath id="cardclip"><rect x="0" y="0" width="220" height="160" rx="14"></rect></clipPath>
  </defs>
  <rect x="0" y="0" width="220" height="160" rx="14" fill="url(#cardbg)"></rect>
  <g clip-path="url(#cardclip)">
            <defs>
              <linearGradient id="vp2body" x1="0" y1="0" x2="0" y2="1">
                <stop offset="0%" stop-color="#FFFFFF"></stop>
                <stop offset="50%" stop-color="#F5F5F7"></stop>
                <stop offset="100%" stop-color="#E0E2E6"></stop>
              </linearGradient>
              <linearGradient id="vp2back" x1="0" y1="0" x2="0" y2="1">
                <stop offset="0%" stop-color="#EEF1F4"></stop>
                <stop offset="100%" stop-color="#C8CCD2"></stop>
              </linearGradient>
              <radialGradient id="vp2top" cx="0.5" cy="0.5">
                <stop offset="0%" stop-color="#4FB89E"></stop>
                <stop offset="100%" stop-color="#246356"></stop>
              </radialGradient>
              <radialGradient id="vp2shade" cx="0.7" cy="0.5" r="0.6">
                <stop offset="0%" stop-color="#fff" stop-opacity="0"></stop>
                <stop offset="100%" stop-color="#1F2A3A" stop-opacity="0.18"></stop>
              </radialGradient>
            </defs>

            
            <ellipse cx="110" cy="146" rx="48" ry="4" fill="#1F2A3A" opacity="0.18"></ellipse>

            
            <ellipse cx="110" cy="142" rx="26" ry="3.5" fill="#C8CCD2"></ellipse>
            <ellipse cx="110" cy="140" rx="26" ry="3.5" fill="#FFFFFF" stroke="#B5BCC8" stroke-width="0.5"></ellipse>

            
            <g>

              
              <g opacity="0.85">
                
                <ellipse cx="110" cy="120" rx="38" ry="7" fill="none" stroke="#4FB89E" stroke-width="1.4" stroke-dasharray="4 3"></ellipse>
                
                <polyline points="144,116 148,120 144,124" stroke="#4FB89E" stroke-width="1.6" fill="none" stroke-linecap="round" stroke-linejoin="round"></polyline>
                
                <text x="110" y="156" text-anchor="middle" font-family="&#39;Pretendard Variable&#39;, Pretendard, -apple-system, sans-serif" font-size="4.5" font-weight="700" fill="#4FB89E" letter-spacing="0.08em">360° 자동 회전</text>
              </g>

              
              <rect x="80" y="34" width="60" height="104" rx="24" ry="22" fill="url(#vp2body)" stroke="#C8CCD2" stroke-width="0.6"></rect>
              <rect x="80" y="34" width="60" height="104" rx="24" ry="22" fill="url(#vp2shade)"></rect>

              
              <g stroke="#D4D8DE" stroke-width="0.4" fill="none" opacity="0.7">
                <path d="M 72 76 Q 110 80 148 76"></path>
                <path d="M 70 92 Q 110 96 150 92"></path>
                <path d="M 70 108 Q 110 112 150 108"></path>
                <path d="M 74 122 Q 110 126 146 122"></path>
              </g>

              
              <ellipse cx="110" cy="42" rx="20" ry="4" fill="#E6E8EC"></ellipse>
              <ellipse cx="110" cy="40" rx="20" ry="4" fill="#FFFFFF" stroke="#C8CCD2" stroke-width="0.4"></ellipse>

              
              <ellipse cx="110" cy="40" rx="16" ry="3" fill="#1F2A3A"></ellipse>
              <ellipse cx="110" cy="39" rx="14" ry="2.5" fill="url(#vp2top)" opacity="0.9"></ellipse>
              <ellipse cx="110" cy="39" rx="7" ry="1.3" fill="#fff" opacity="0.85"></ellipse>

              
              <g>
                
                <circle cx="110" cy="80" r="3.6" fill="#0E141C" stroke="#B5BCC8" stroke-width="0.4"></circle>
                
                <circle cx="110" cy="80" r="2.2" fill="#1F2A3A">
                  
                </circle>
                <circle cx="110.7" cy="79.3" r="0.7" fill="#fff" opacity="0">
                  
                </circle>

                
                <rect x="106.4" y="76.4" width="7.2" height="7.2" rx="0.6" fill="#7C8898">
                  
                </rect>

                
                <circle cx="110" cy="80" r="4" fill="none" stroke="#4FB89E" stroke-width="0.7">
                  
                  
                </circle>

                
                <rect x="84" y="60" width="1" height="40" fill="#4FB89E" opacity="0">
                  
                  
                </rect>

                
                <rect x="118" y="78" width="10" height="4" rx="2" fill="rgba(124,156,184,0.35)"></rect>
                <circle cx="120.4" cy="80" r="1.8" fill="#7C8898">
                  
                  
                </circle>

                
                <g transform="translate(110, 60)">
                  <rect x="-12" y="-7" width="24" height="10" rx="5" fill="rgba(15,20,30,0.85)" opacity="0">
                    
                  </rect>
                  <text x="0" y="0.5" text-anchor="middle" font-family="&#39;Pretendard Variable&#39;, Pretendard, -apple-system, sans-serif" font-size="5" font-weight="700" fill="#4FB89E" letter-spacing="0.06em" opacity="0">
                    감지
                    
                  </text>
                </g>

                
                <text x="110" y="22" text-anchor="middle" font-family="&#39;Pretendard Variable&#39;, Pretendard, -apple-system, sans-serif" font-size="6" font-weight="700" fill="#246356" letter-spacing="0.16em" opacity="0">ON:GI
                  
                </text>

                
                <rect x="106" y="130" width="8" height="2" rx="1" fill="#4FB89E" opacity="0.9">
                  
                </rect>
              </g>
            </g>
          </g>
</svg>