<svg xmlns="http://www.w3.org/2000/svg" viewBox="0 0 400 400" preserveAspectRatio="xMidYMid slice">
<defs><linearGradient id="bg" x1="0" y1="0" x2="0" y2="1"><stop offset="0%" stop-color="#FBE9E9"></stop><stop offset="100%" stop-color="#F0E1CB"></stop></linearGradient></defs>
<rect width="400" height="400" fill="url(#bg)"></rect>
<ellipse cx="200" cy="380" rx="320" ry="40" fill="#A6D5C2" opacity="0.5"></ellipse>

<g transform="translate(140, 240)">
  <path d="M -50 140 Q -60 60 -30 0 L 30 0 Q 60 60 50 140 Z" fill="#4FB89E"></path>
  <circle cx="0" cy="-30" r="38" fill="#FBDFC0"></circle>
  <ellipse cx="0" cy="-30" rx="38" ry="34" fill="#E5E5DE"></ellipse>
  <circle cx="0" cy="-30" r="32" fill="#FBDFC0"></circle>
  <ellipse cx="0" cy="-66" rx="18" ry="14" fill="#E5E5DE"></ellipse>
  <path d="M -14 -32 Q -10 -26 -6 -32" stroke="#2C1810" stroke-width="3" fill="none" stroke-linecap="round"></path>
  <path d="M 6 -32 Q 10 -26 14 -32" stroke="#2C1810" stroke-width="3" fill="none" stroke-linecap="round"></path>
  <path d="M -6 -16 Q 0 -10 6 -16" stroke="#C44A3C" stroke-width="3" fill="none" stroke-linecap="round"></path>
  <circle cx="-20" cy="-20" r="5" fill="#F4B8B8" opacity="0.85"></circle>
  <circle cx="20" cy="-20" r="5" fill="#F4B8B8" opacity="0.85"></circle>
</g>

<g transform="translate(280, 320) scale(0.7)">
  <ellipse cx="0" cy="50" rx="100" ry="10" fill="#000" opacity="0.18"></ellipse>
  <rect x="-100" y="-10" width="200" height="60" rx="30" fill="#A8753F"></rect>
  <ellipse cx="-10" cy="30" rx="80" ry="14" fill="#D9A875" opacity="0.7"></ellipse>
  <rect x="-85" y="40" width="18" height="24" rx="9" fill="#A8753F"></rect>
  <rect x="-50" y="40" width="18" height="24" rx="9" fill="#8C5C30"></rect>
  <rect x="30" y="40" width="18" height="24" rx="9" fill="#A8753F"></rect>
  <rect x="60" y="40" width="18" height="24" rx="9" fill="#8C5C30"></rect>
  <g transform="translate(-118,-6)">
    <circle cx="0" cy="0" r="40" fill="#A8753F"></circle>
    <ellipse cx="-26" cy="14" rx="22" ry="16" fill="#D9A875"></ellipse>
    <path d="M -14 -22 Q -22 -8 -26 22 Q -16 26 -6 18 Q -4 4 4 -16 Z" fill="#6B3D1C"></path>
    <circle cx="4" cy="-4" r="6" fill="#fff"></circle>
    <circle cx="4" cy="-2" r="5" fill="#2C1810"></circle>
    <circle cx="5" cy="-4" r="2" fill="#fff"></circle>
    <ellipse cx="-44" cy="10" rx="6" ry="5" fill="#1A0F08"></ellipse>
    <path d="M -36 16 Q -30 22 -22 18" stroke="#1A0F08" stroke-width="2" fill="none" stroke-linecap="round"></path>
  </g>
</g>
<g fill="#D94B4B" opacity="0.7">
  <path d="M 180 80 a 6 6 0 0 1 12 0 a 6 6 0 0 1 12 0 c 0 7 -12 14 -12 14 c 0 0 -12 -7 -12 -14 z"></path>
</g>
</svg>