<svg xmlns="http://www.w3.org/2000/svg" viewBox="0 0 400 400" preserveAspectRatio="xMidYMid slice">
<defs><linearGradient id="bg" x1="0" y1="0" x2="0" y2="1"><stop offset="0%" stop-color="#F4E7D2"></stop><stop offset="100%" stop-color="#FBE9E9"></stop></linearGradient></defs>
<rect width="400" height="400" fill="url(#bg)"></rect>
<ellipse cx="200" cy="380" rx="320" ry="30" fill="#D9B88C" opacity="0.5"></ellipse>
<g transform="translate(200,300)">
  <path d="M -120 -10 L 120 -10 L 100 80 L -100 80 Z" fill="#A8753F"></path>
  <path d="M -120 -10 L 120 -10 L 100 80 L -100 80 Z" fill="none" stroke="#5C3618" stroke-width="2" stroke-dasharray="8 4"></path>
  <ellipse cx="0" cy="-10" rx="120" ry="14" fill="#C9986A"></ellipse>
  <ellipse cx="0" cy="-10" rx="100" ry="8" fill="#5C3618"></ellipse>
  <g transform="translate(0,-20) scale(0.55)">
    <ellipse cx="0" cy="20" rx="80" ry="10" fill="#000" opacity="0.18"></ellipse>
    <rect x="-70" y="-10" width="140" height="36" rx="18" fill="#A8753F"></rect>
    <ellipse cx="-10" cy="18" rx="56" ry="8" fill="#D9A875" opacity="0.7"></ellipse>
    <g transform="translate(-78,-6)">
      <circle cx="0" cy="0" r="30" fill="#A8753F"></circle>
      <ellipse cx="-20" cy="10" rx="16" ry="12" fill="#D9A875"></ellipse>
      <path d="M -10 -16 Q -16 -4 -20 16 Q -12 18 -4 12 Q -2 2 4 -10 Z" fill="#6B3D1C"></path>
      <circle cx="4" cy="-4" r="5" fill="#fff"></circle>
      <circle cx="4" cy="-2" r="4" fill="#2C1810"></circle>
      <circle cx="5" cy="-4" r="1.5" fill="#fff"></circle>
      <ellipse cx="-32" cy="8" rx="4" ry="3" fill="#1A0F08"></ellipse>
      <path d="M -26 14 Q -22 18 -16 16" stroke="#1A0F08" stroke-width="1.6" fill="none" stroke-linecap="round"></path>
    </g>
  </g>
</g>
<text x="200" y="60" text-anchor="middle" font-size="14" font-weight="700" fill="#8C6433" font-family="system-ui" letter-spacing="2">2012 · 처음 만난 날</text>
</svg>